<?xml version="1.0" encoding="utf-8"?>
<!-- Generator: Adobe Illustrator 16.0.0, SVG Export Plug-In . SVG Version: 6.00 Build 0)  -->
<!DOCTYPE svg PUBLIC "-//W3C//DTD SVG 1.1//EN" "http://www.w3.org/Graphics/SVG/1.1/DTD/svg11.dtd">
<svg version="1.1" id="Layer_1" xmlns="http://www.w3.org/2000/svg" xmlns:xlink="http://www.w3.org/1999/xlink" x="0px" y="0px"
	 width="1200px" height="1200px" viewBox="0 0 1200 1200" enable-background="new 0 0 1200 1200" xml:space="preserve">
<g>
	<g>
		<circle fill="#FFFFFF" stroke="#76B729" stroke-width="150" stroke-miterlimit="10" cx="600" cy="600" r="525"/>
	</g>
	<g>
		<path d="M565.502,804.301h-56.399L355.502,531.9v272.4h-63.601V402.3h63.601L501.902,659.1V402.3h63.601V804.301z"/>
		<path d="M908.098,804.301H634.496c2.795-95.598,50.795-169.801,144-222.601c45.602-24,67.595-46.594,66-67.8
			c0-15.197-6.506-27.797-19.5-37.801c-13.003-9.993-29.905-15.395-50.698-16.199c-37.604,2.803-63,21.806-76.2,57l-63.602-18.6
			c10.397-28.801,27.694-53.101,51.9-72.899c24.197-19.801,52.5-29.7,84.9-29.7c37.996,0,70.293,11.606,96.898,34.801
			c26.598,23.202,39.9,50.202,39.9,81c-1.2,50.803-32.007,91.8-92.4,123c-57.206,33.205-91.406,68.202-102.6,105h195v64.799H908.098
			z"/>
	</g>
</g>
</svg>
