<?xml version="1.0" encoding="utf-8"?>
<!-- Generator: Adobe Illustrator 16.0.0, SVG Export Plug-In . SVG Version: 6.00 Build 0)  -->
<!DOCTYPE svg PUBLIC "-//W3C//DTD SVG 1.1//EN" "http://www.w3.org/Graphics/SVG/1.1/DTD/svg11.dtd">
<svg version="1.1" id="Layer_1" xmlns="http://www.w3.org/2000/svg" xmlns:xlink="http://www.w3.org/1999/xlink" x="0px" y="0px"
	 width="1200px" height="1200px" viewBox="0 0 1200 1200" enable-background="new 0 0 1200 1200" xml:space="preserve">
<g>
	<g>
		<circle fill="#FFFFFF" stroke="#76B729" stroke-width="150" stroke-miterlimit="10" cx="600" cy="600" r="525"/>
	</g>
	<g>
		<path d="M570.303,800.4h-56.4L360.303,528v272.4h-63.601v-402h63.601l146.398,256.8V398.4h63.602V800.4L570.303,800.4z"/>
		<path d="M903.298,667.801c0,41.203-12.899,74.804-38.699,100.801c-25.801,26.006-57.703,39.196-95.7,39.6
			c-34.8-0.402-64.2-8.794-88.2-25.199c-24-16.396-42.402-40.996-55.2-73.801l65.4-21c17.193,36.808,42.797,55.003,76.8,54.602
			c21.197,0,38.494-6.694,51.9-20.102c13.396-13.396,20.1-30.3,20.1-50.699c-0.402-35.193-18.6-54.993-54.6-59.399h-18.602v-63
			h18.602c25.996,0,39-13.2,39-39.601c0-15.601-5.606-28.396-16.801-38.399c-11.203-9.994-24.807-15-40.801-15
			c-26.803,0-48,14.006-63.6,42l-60-18.601c7.2-23.193,22.097-43.595,44.7-61.201c22.594-17.597,48.3-26.597,77.1-26.999
			c33.994,0,63,11.905,87,35.7c24,23.804,36,52.705,36,86.699c0.395,28.406-8.803,50.203-27.6,65.4
			C888.092,599.203,902.491,628.603,903.298,667.801z"/>
	</g>
</g>
</svg>
